<svg width="8" height="7" viewBox="0 0 8 7" fill="none" xmlns="http://www.w3.org/2000/svg">
<path fill-rule="evenodd" clip-rule="evenodd" d="M1.13937 2.08969C1.14875 1.9975 1.11344 1.90656 1.04469 1.84469L0.344687 1.00094V0.875H2.51906L4.19969 4.56094L5.67719 0.875H7.75V1.00094L7.15125 1.575C7.09969 1.61437 7.07406 1.67906 7.08469 1.74312V5.96125C7.07406 6.025 7.09969 6.08969 7.15125 6.12906L7.73594 6.70312V6.82906H4.79469V6.70312L5.40063 6.115C5.46 6.05562 5.46 6.03813 5.46 5.94719V2.53781L3.77594 6.81531H3.54844L1.5875 2.53781V5.40469C1.57125 5.525 1.61125 5.64656 1.69594 5.73344L2.48375 6.68906V6.81531H0.25V6.68906L1.03781 5.73344C1.12219 5.64625 1.15969 5.52406 1.13937 5.40469V2.08969Z" fill="white"/>
</svg>
