<svg width="8" height="8" viewBox="0 0 8 8" fill="none" xmlns="http://www.w3.org/2000/svg">
<path fill-rule="evenodd" clip-rule="evenodd" d="M7.75 4C7.75 6.07107 6.07107 7.75 4 7.75C1.92893 7.75 0.25 6.07107 0.25 4C0.25 1.92893 1.92893 0.25 4 0.25C6.07107 0.25 7.75 1.92893 7.75 4ZM4.33598 2.92702L1.81069 3.96749C1.36633 4.1409 1.62644 4.30347 1.62644 4.30347C1.62644 4.30347 2.00578 4.43353 2.33092 4.53107C2.65607 4.62861 2.82948 4.52023 2.82948 4.52023L4.35766 3.49061C4.89957 3.12211 4.76951 3.42558 4.63945 3.55564C4.35766 3.83743 3.89162 4.28179 3.50145 4.63945C3.32803 4.79119 3.41474 4.92124 3.49061 4.98627C3.71116 5.17289 4.23048 5.51222 4.46657 5.66648C4.53212 5.70931 4.57584 5.73788 4.58526 5.74494C4.63945 5.7883 4.94292 5.98338 5.12717 5.94003C5.31142 5.89668 5.33309 5.6474 5.33309 5.6474L5.60405 3.94581C5.62813 3.78628 5.65221 3.6301 5.67466 3.48446C5.73306 3.10567 5.78047 2.79818 5.78829 2.68858C5.82081 2.32009 5.43064 2.47182 5.43064 2.47182C5.43064 2.47182 4.58526 2.81864 4.33598 2.92702Z" fill="white"/>
</svg>
