<svg width="8" height="7" viewBox="0 0 8 7" fill="none" xmlns="http://www.w3.org/2000/svg">
<path d="M2.60942 6.96897C5.43892 6.96897 6.98696 4.6242 6.98696 2.59144C6.98696 2.52552 6.9855 2.45813 6.98257 2.39222C7.28371 2.17444 7.54359 1.90468 7.75 1.59563C7.46954 1.72042 7.17176 1.80191 6.86685 1.83733C7.1879 1.64489 7.42829 1.34256 7.54346 0.986406C7.24142 1.1654 6.91112 1.29167 6.5667 1.35979C6.33464 1.11322 6.02781 0.949953 5.69365 0.895245C5.3595 0.840537 5.01662 0.897432 4.71804 1.05713C4.41947 1.21684 4.18181 1.47045 4.04183 1.77876C3.90184 2.08708 3.86732 2.43292 3.9436 2.76282C3.33203 2.73213 2.73373 2.57326 2.18749 2.29651C1.64126 2.01976 1.15928 1.6313 0.772803 1.15633C0.576375 1.49499 0.516268 1.89574 0.604697 2.27713C0.693127 2.65852 0.923457 2.99193 1.24888 3.2096C1.00457 3.20184 0.765617 3.13607 0.551758 3.0177V3.03675C0.551539 3.39215 0.674406 3.73666 0.899472 4.01172C1.12454 4.28678 1.43791 4.4754 1.78633 4.54554C1.56002 4.60746 1.32249 4.61648 1.09214 4.5719C1.19045 4.87755 1.38174 5.14488 1.6393 5.33658C1.89687 5.52828 2.20785 5.63479 2.52886 5.64124C1.98388 6.06933 1.31068 6.30152 0.617676 6.30042C0.494777 6.30023 0.372 6.2927 0.25 6.27786C0.954018 6.72953 1.77298 6.96941 2.60942 6.96897Z" fill="white"/>
</svg>
